<?xml version="1.0" standalone="no"?>
<!DOCTYPE svg PUBLIC "-//W3C//DTD SVG 20010904//EN"
 "http://www.w3.org/TR/2001/REC-SVG-20010904/DTD/svg10.dtd">
<svg version="1.0" xmlns="http://www.w3.org/2000/svg"
 width="280" height="209" viewBox="0 0 1200 896"
 preserveAspectRatio="xMidYMid meet">

<defs>
<linearGradient id="logoGrad" x1="0%" y1="0%" x2="100%" y2="100%">
  <stop offset="0%" style="stop-color:#6d28d9"/>
  <stop offset="50%" style="stop-color:#9333ea"/>
  <stop offset="100%" style="stop-color:#ec4899"/>
</linearGradient>
</defs>
<g transform="translate(0.000000,896.000000) scale(0.100000,-0.100000)"
fill="url(#logoGrad)" stroke="none">
<path d="M3416 5483 c-2 -2 -228 -6 -502 -8 -274 -3 -544 -7 -599 -10 -120 -6
-245 -34 -325 -74 -33 -17 -60 -28 -60 -25 0 9 -93 -57 -152 -108 -77 -66
-142 -154 -194 -263 -70 -145 -94 -271 -94 -493 0 -227 31 -414 89 -539 87
-184 253 -342 447 -423 155 -64 264 -72 837 -63 l388 6 97 85 c177 154 229
208 236 244 9 48 6 717 -3 722 -13 9 -985 30 -1014 22 -16 -4 -27 -10 -25 -15
3 -9 297 -274 426 -386 45 -38 82 -78 82 -87 0 -9 -16 -29 -35 -43 -19 -15
-33 -30 -32 -35 3 -12 -190 -190 -263 -242 -36 -25 -102 -64 -148 -87 -81 -41
-85 -42 -170 -39 l-87 3 60 34 c33 19 75 45 94 59 19 14 31 20 27 13 -7 -10
-4 -11 13 -2 11 7 21 14 21 17 0 3 -5 2 -12 -2 -7 -4 -8 -3 -4 4 4 6 13 9 20
6 7 -3 19 3 27 12 12 15 12 17 0 9 -10 -5 -12 -4 -7 4 4 6 11 9 15 6 20 -12
351 275 351 305 0 19 -80 90 -101 90 -6 0 -50 -35 -96 -77 -112 -103 -191
-165 -202 -161 -5 2 -58 57 -118 124 -59 66 -197 220 -307 342 -109 122 -202
219 -207 216 -26 -16 -146 211 -154 291 -5 50 -5 50 5 11 14 -55 24 -60 16 -8
-5 32 -1 52 14 81 30 59 95 130 174 190 66 50 180 111 207 111 7 0 21 7 31 17
10 9 18 11 18 6 0 -6 -37 -49 -83 -96 -100 -103 -287 -332 -287 -353 0 -38 53
-114 79 -114 9 0 85 84 170 186 85 102 188 221 228 264 41 44 74 81 74 84 -1
4 1 6 4 6 3 0 19 7 36 16 21 11 51 15 93 13 33 -2 67 0 74 4 31 20 5 -7 -69
-69 -44 -38 -133 -132 -198 -209 -199 -237 -331 -404 -331 -419 0 -8 19 -35
43 -61 l42 -46 50 47 c28 25 43 43 35 38 -8 -4 -5 3 8 17 98 105 134 147 206
238 117 151 262 308 330 358 32 24 54 43 50 43 -5 0 6 9 24 20 18 11 38 17 44
14 7 -4 8 -2 4 4 -10 16 34 21 257 27 171 5 198 3 203 -10 7 -17 -72 -145 -90
-146 -6 0 -105 -2 -221 -3 -115 -2 -221 -8 -235 -13 -28 -12 -130 -109 -130
-124 0 -5 131 -9 334 -9 l333 0 33 29 c18 15 30 33 26 39 -3 6 -1 14 5 18 8 4
9 3 5 -4 -4 -7 -5 -12 -3 -12 9 0 130 203 130 217 0 7 2 11 5 8 7 -6 92 124
92 141 0 7 -17 15 -38 19 -35 6 -109 4 -116 -2z m-1166 -316 c0 -2 -12 -14
-27 -28 l-28 -24 24 28 c23 25 31 32 31 24z m1113 -22 c-3 -9 -8 -14 -10 -11
-3 3 -2 9 2 15 9 16 15 13 8 -4z m-1640 -553 c30 -43 148 -180 263 -306 272
-297 394 -435 394 -446 0 -14 -140 -96 -193 -114 -76 -26 -141 -21 -206 14
-51 28 -51 25 4 -16 27 -20 -3 -6 -38 18 -15 11 -25 23 -22 28 6 9 -52 56 -65
53 -4 -1 -18 10 -31 25 l-24 27 28 -24 c38 -34 34 -17 -8 31 -61 71 -152 271
-143 313 2 10 43 -28 113 -106 258 -288 288 -319 306 -319 21 0 99 29 113 41
6 5 2 18 -10 31 -16 19 -16 20 -1 9 48 -38 16 8 -89 125 -64 71 -162 180 -216
241 -55 62 -105 110 -111 106 -6 -3 -7 -1 -3 5 3 6 -11 34 -33 63 -22 29 -49
77 -61 107 -20 53 -39 172 -27 172 3 0 30 -35 60 -78z m-59 -72 c6 -21 5 -22
-4 -7 -6 10 -13 44 -15 75 l-4 57 8 -50 c5 -28 11 -62 15 -75z m251 70 c10
-11 16 -20 13 -20 -3 0 -13 9 -23 20 -10 11 -16 20 -13 20 3 0 13 -9 23 -20z
m1035 -186 c19 0 115 -2 213 -3 132 -2 175 -6 170 -14 -13 -21 -136 -162 -162
-184 l-25 -22 -65 57 c-167 144 -191 166 -191 174 0 5 6 6 13 1 6 -4 28 -8 47
-9z m-1139 -111 c13 -16 12 -17 -3 -4 -10 7 -18 15 -18 17 0 8 8 3 21 -13z
m1619 -247 l0 -213 -52 -49 c-95 -89 -86 -102 -88 124 -1 221 -6 200 77 295
19 21 32 41 29 45 -3 4 4 9 15 9 18 2 19 -7 19 -211z m-1773 152 c-3 -7 -5 -2
-5 12 0 14 2 19 5 13 2 -7 2 -19 0 -25z m1626 -93 c-3 -9 -8 -14 -10 -11 -3 3
-2 9 2 15 9 16 15 13 8 -4z m-6 -72 c-3 -10 -5 -2 -5 17 0 19 2 27 5 18 2 -10
2 -26 0 -35z m0 -100 c-2 -16 -4 -5 -4 22 0 28 2 40 4 28 2 -13 2 -35 0 -50z
m-147 -171 l0 -148 -170 1 c-93 0 -170 1 -170 3 0 6 24 27 85 74 33 25 84 71
114 102 30 30 58 53 62 51 4 -3 20 10 36 29 15 19 31 35 36 35 4 1 7 -66 7
-147z m147 101 c-3 -10 -5 -4 -5 12 0 17 2 24 5 18 2 -7 2 -21 0 -30z m-1220
-169 c-3 -3 -12 -4 -19 -1 -8 3 -5 6 6 6 11 1 17 -2 13 -5z"/>
<path d="M3024 3818 l-19 -23 23 19 c21 18 27 26 19 26 -2 0 -12 -10 -23 -22z"/>
<path d="M9510 5131 c-8 -6 -18 -7 -22 -5 -5 3 -8 2 -7 -3 3 -13 -25 -73 -33
-73 -4 0 -8 -9 -8 -20 0 -11 5 -20 12 -20 6 0 9 -3 5 -6 -3 -3 10 -21 30 -40
26 -26 43 -34 70 -34 44 0 101 34 108 63 13 63 9 85 -24 118 -24 23 -38 29
-73 29 -24 0 -50 -4 -58 -9z"/>
<path d="M4411 5045 c-139 -39 -263 -145 -327 -278 -62 -130 -59 -309 7 -439
84 -166 247 -260 454 -261 123 0 212 20 323 74 l82 40 -2 197 -3 197 -85 0
-85 0 -3 -140 c-3 -165 -8 -175 -102 -195 -181 -38 -362 37 -419 174 -32 76
-22 237 19 315 24 47 85 108 129 131 50 25 95 33 175 32 81 -2 144 -21 210
-62 26 -17 55 -30 65 -30 16 0 101 84 101 101 0 8 -56 69 -64 69 -4 0 -22 11
-39 24 -58 42 -123 58 -257 62 -90 3 -140 0 -179 -11z"/>
<path d="M1761 4860 c-2 -34 113 -240 126 -227 3 3 -6 21 -20 39 -22 29 -63
106 -95 178 -6 14 -11 18 -11 10z"/>
<path d="M5404 4815 c-80 -17 -135 -46 -185 -96 -136 -136 -145 -402 -18 -529
83 -83 183 -121 319 -122 83 0 105 4 172 30 43 16 91 41 107 54 l29 25 -18 29
c-10 16 -32 45 -50 64 -33 34 -33 34 -49 13 -28 -34 -82 -56 -152 -61 -86 -6
-156 11 -203 50 -32 26 -66 83 -66 109 0 5 132 10 293 11 l292 3 -2 76 c-3
132 -65 246 -162 297 -104 55 -205 70 -307 47z m163 -136 c54 -20 123 -102
123 -147 0 -18 -9 -18 -192 -14 -106 2 -194 6 -196 7 -2 2 6 20 16 42 24 45
76 98 112 112 34 13 102 13 137 0z"/>
<path d="M6383 4820 c-58 -12 -100 -36 -140 -78 l-33 -37 5 37 c10 63 -5 78
-80 78 -105 0 -95 37 -95 -371 0 -410 -9 -374 97 -374 37 0 67 5 75 13 10 9
14 70 18 225 5 195 7 215 27 254 29 54 76 89 136 103 53 12 85 6 138 -22 63
-35 64 -38 67 -305 3 -187 6 -244 17 -253 8 -6 44 -10 92 -8 l78 3 -1 245 c0
288 -10 339 -75 401 -79 77 -213 113 -326 89z"/>
<path d="M7399 4826 c-2 -2 -27 -6 -56 -9 -28 -3 -58 -10 -65 -16 -7 -6 -33
-27 -58 -46 l-45 -35 -3 43 c-2 23 -8 45 -14 48 -6 4 -40 8 -75 8 -97 1 -92
29 -89 -523 1 -305 6 -470 13 -477 5 -5 44 -9 89 -7 l79 3 3 163 c1 90 6 162
10 160 119 -62 124 -63 232 -63 88 0 113 4 155 23 92 43 150 95 187 169 31 64
33 73 33 178 0 98 -3 116 -27 167 -49 106 -106 160 -204 193 -45 15 -156 29
-165 21z m121 -180 c47 -31 75 -81 89 -162 12 -68 10 -86 -18 -146 -29 -62
-51 -84 -105 -102 -57 -20 -95 -20 -165 -1 -67 17 -106 53 -127 118 -28 85 -1
211 57 267 70 66 191 78 269 26z"/>
<path d="M8250 4788 c-40 -20 -82 -47 -92 -60 l-18 -23 0 47 c0 60 -17 70 -98
62 -47 -5 -62 -11 -71 -28 -8 -15 -11 -124 -9 -361 l3 -340 76 -3 c62 -2 79 0
90 14 11 13 14 59 15 203 1 164 3 191 21 231 35 79 104 130 173 130 57 0 70
14 70 78 0 31 -5 64 -10 72 -16 25 -71 17 -150 -22z"/>
<path d="M8860 4819 c-103 -11 -101 -10 -166 -51 -101 -63 -159 -137 -192
-248 -20 -69 -8 -159 32 -247 99 -212 436 -273 634 -113 116 93 159 246 114
397 -30 96 -102 176 -207 227 -41 20 -80 34 -85 31 -5 -3 -11 -1 -15 5 -7 11
-6 11 -115 -1z m125 -158 c88 -40 123 -101 126 -217 2 -115 -23 -160 -111
-199 -88 -39 -205 -22 -266 39 -81 81 -80 235 2 326 60 66 168 88 249 51z"/>
<path d="M9500 4812 c-8 -3 -18 -10 -22 -16 -9 -13 -9 -353 -1 -563 l6 -153
67 0 c106 0 100 -21 100 366 0 381 3 368 -82 370 -29 1 -60 -1 -68 -4z"/>
<path d="M10035 4809 c-4 -5 -18 -6 -32 -3 -19 5 -24 4 -18 -6 5 -9 2 -10 -15
-5 -14 4 -20 3 -16 -3 3 -5 -7 -15 -23 -22 -17 -6 -43 -22 -60 -34 l-30 -22
25 -42 c33 -56 53 -60 127 -26 49 23 80 29 150 32 77 4 90 2 102 -14 7 -11 19
-19 27 -19 7 0 13 -8 13 -17 0 -10 4 -17 9 -17 17 1 28 -31 21 -64 -5 -25 -4
-29 5 -17 10 13 11 13 7 0 -3 -12 -32 -16 -153 -22 -192 -8 -241 -23 -302 -93
-40 -45 -48 -76 -44 -166 3 -50 65 -119 134 -149 66 -30 184 -36 243 -14 22 9
46 16 53 16 6 1 12 5 12 10 0 5 5 6 10 3 6 -3 13 1 16 9 3 9 11 13 17 9 5 -3
16 2 24 12 12 17 13 16 13 -17 0 -29 4 -37 23 -42 42 -11 114 -6 127 8 8 11
11 81 8 263 -3 234 -4 251 -26 298 -21 46 -77 115 -93 115 -3 0 -24 8 -45 17
-22 9 -46 19 -54 21 -30 9 -250 10 -255 1z m284 -418 c19 -12 8 -94 -19 -131
-27 -38 -86 -64 -145 -64 -110 -1 -148 25 -148 99 0 56 24 84 80 95 55 11 215
11 232 1z"/>
<path d="M9454 4460 c0 -157 2 -221 3 -142 2 78 2 206 0 285 -1 78 -3 14 -3
-143z"/>
<path d="M10028 4513 c6 -2 18 -2 25 0 6 3 1 5 -13 5 -14 0 -19 -2 -12 -5z"/>
<path d="M2360 3640 c-13 -8 -12 -10 3 -10 9 0 17 5 17 10 0 12 -1 12 -20 0z"/>
</g>
</svg>
